<svg xmlns="http://www.w3.org/2000/svg" viewBox="0 0 200 200" width="200" height="200">
  <defs>
    <linearGradient id="g" x1="0" y1="0" x2="1" y2="1">
      <stop offset="0%" stop-color="#3a9148"/>
      <stop offset="100%" stop-color="#205627"/>
    </linearGradient>
  </defs>
  <rect width="200" height="200" rx="40" fill="url(#g)"/>
  <g fill="none" stroke="#e6c97a" stroke-width="9" stroke-linecap="round">
    <path d="M100 40 L100 165"/>
    <path d="M100 70 C 70 75 55 95 55 115"/>
    <path d="M100 70 C 130 75 145 95 145 115"/>
    <path d="M100 100 C 72 105 60 125 60 145"/>
    <path d="M100 100 C 128 105 140 125 140 145"/>
    <path d="M100 130 C 78 132 70 148 70 165"/>
    <path d="M100 130 C 122 132 130 148 130 165"/>
  </g>
  <circle cx="100" cy="40" r="9" fill="#e6c97a"/>
</svg>
